<svg width="73" height="73" viewBox="0 0 73 73" fill="none" xmlns="http://www.w3.org/2000/svg">
<g clip-path="url(#clip0_1013_9357)">
<path d="M71.4187 45.2086C66.6107 64.4945 47.0772 76.2315 27.789 71.4222C8.5089 66.6141 -3.22812 47.0794 1.58205 27.7951C6.388 8.50708 25.9215 -3.23082 45.2037 1.57724C64.4905 6.3853 76.2268 25.9221 71.4182 45.2089L71.4186 45.2086H71.4187Z" fill="#F7931A"/>
<path d="M52.377 31.371C53.0936 26.5802 49.4462 24.0049 44.4586 22.287L46.0766 15.7974L42.1262 14.8131L40.5511 21.1318C39.5126 20.8728 38.4461 20.6287 37.3861 20.3868L38.9726 14.0263L35.0246 13.042L33.4057 19.5295C32.5463 19.3338 31.7022 19.1404 30.8833 18.9366L30.8879 18.9162L25.4402 17.5558L24.3893 21.7751C24.3893 21.7751 27.3202 22.447 27.2584 22.4883C28.8581 22.8876 29.1474 23.9465 29.0994 24.7859L27.2563 32.179C27.3665 32.207 27.5093 32.2475 27.667 32.3108C27.5352 32.2781 27.395 32.2424 27.2494 32.2075L24.6661 42.5643C24.4706 43.0503 23.9744 43.7797 22.856 43.5027C22.8955 43.5601 19.9847 42.7862 19.9847 42.7862L18.0234 47.3081L23.1642 48.5897C24.1206 48.8295 25.0578 49.0804 25.9807 49.3164L24.346 55.8804L28.2919 56.8648L29.9107 50.3704C30.9887 50.6631 32.0348 50.933 33.0589 51.1874L31.4455 57.6512L35.3961 58.6355L37.0306 52.0838C43.7669 53.3587 48.832 52.8447 50.964 46.7517C52.682 41.8462 50.8785 39.0167 47.3346 37.1715C49.9158 36.5762 51.86 34.8785 52.3784 31.3715L52.3772 31.3706L52.377 31.371ZM43.3513 44.0274C42.1304 48.933 33.871 46.2812 31.1932 45.6162L33.3625 36.92C36.0401 37.5885 44.6272 38.9114 43.3514 44.0274H43.3513ZM44.573 31.2999C43.4593 35.762 36.5849 33.4951 34.3549 32.9392L36.3217 25.0523C38.5517 25.6082 45.7331 26.6456 44.5733 31.2999H44.573Z" fill="white"/>
</g>
<defs>
<clipPath id="clip0_1013_9357">
<rect width="72" height="72" fill="white" transform="translate(0.5 0.5)"/>
</clipPath>
</defs>
</svg>
