<svg width="73" height="73" viewBox="0 0 73 73" fill="none" xmlns="http://www.w3.org/2000/svg">
<g clip-path="url(#clip0_1013_9350)">
<path d="M36.5 0.5C56.3841 0.5 72.5 16.6192 72.5 36.5C72.5 56.3841 56.3841 72.5 36.5 72.5C16.6192 72.5 0.5 56.3825 0.5 36.5C0.5 16.6192 16.6192 0.5 36.5 0.5Z" fill="#F5AC37"/>
<path d="M37.8266 39.0416H51.506C51.7976 39.0416 51.9353 39.0416 51.9564 38.6593C52.0682 37.2677 52.0682 35.868 51.9564 34.4748C51.9564 34.2042 51.8219 34.0925 51.5287 34.0925H24.3043C23.9674 34.0925 23.8766 34.2042 23.8766 34.5201V38.5248C23.8766 39.0416 23.8766 39.0416 24.4161 39.0416H37.8266ZM50.4287 29.4122C50.4676 29.3102 50.4676 29.1984 50.4287 29.098C50.2003 28.6006 49.9297 28.1259 49.6154 27.6804C49.1424 26.919 48.5851 26.2176 47.9501 25.5874C47.6504 25.2067 47.3037 24.8649 46.9149 24.5749C44.9676 22.9176 42.6526 21.7447 40.1643 21.155C38.9088 20.8731 37.6257 20.7387 36.3394 20.75H24.2573C23.9204 20.75 23.875 20.8845 23.875 21.1777V29.1644C23.875 29.5013 23.875 29.5921 24.3027 29.5921H50.2667C50.2667 29.5921 50.4919 29.5467 50.5372 29.4122H50.4271H50.4287ZM50.4287 43.7218C50.0464 43.6797 49.6608 43.6797 49.2785 43.7218H24.327C23.99 43.7218 23.8766 43.7218 23.8766 44.1722V51.9807C23.8766 52.3403 23.8766 52.431 24.327 52.431H35.8469C36.3977 52.4732 36.9485 52.4343 37.488 52.3193C39.1599 52.1994 40.8042 51.8365 42.3724 51.2387C42.9426 51.0411 43.4934 50.7835 44.0134 50.4741H44.1706C46.8711 49.0695 49.0646 46.8631 50.4481 44.1544C50.4481 44.1544 50.6053 43.8142 50.4287 43.7251V43.7218ZM19.3552 56.4795V56.345V51.1026V49.3255V44.0377C19.3552 43.7445 19.3552 43.7008 18.9955 43.7008H14.1128C13.8422 43.7008 13.7305 43.7008 13.7305 43.3411V39.0659H18.9502C19.2418 39.0659 19.3552 39.0659 19.3552 38.6836V34.4537C19.3552 34.1832 19.3552 34.1168 18.9955 34.1168H14.1128C13.8422 34.1168 13.7305 34.1168 13.7305 33.7571V29.7978C13.7305 29.5499 13.7305 29.4835 14.0901 29.4835H18.9275C19.2644 29.4835 19.3552 29.4835 19.3552 29.0558V16.9284C19.3552 16.5687 19.3552 16.478 19.8055 16.478H36.6796C37.9044 16.5266 39.121 16.6611 40.3247 16.883C42.8049 17.3415 45.1879 18.2276 47.3669 19.4929C48.8119 20.3434 50.142 21.3705 51.3262 22.5531C52.2172 23.4781 53.0207 24.4793 53.7335 25.5453C54.4415 26.6258 55.0295 27.7809 55.4913 28.9878C55.548 29.3021 55.8493 29.5143 56.1636 29.4608H60.1909C60.7077 29.4608 60.7077 29.4608 60.7304 29.9566V33.647C60.7304 34.0066 60.5959 34.0973 60.2347 34.0973H57.1291C56.8148 34.0973 56.7241 34.0973 56.7468 34.5023C56.8699 35.8729 56.8699 37.2483 56.7468 38.6188C56.7468 39.0011 56.7468 39.0465 57.1761 39.0465H60.7288C60.8859 39.249 60.7288 39.4515 60.7288 39.6556C60.7514 39.9164 60.7514 40.1805 60.7288 40.4413V43.1646C60.7288 43.5469 60.617 43.6603 60.2784 43.6603H56.0259C55.7294 43.6036 55.441 43.7931 55.373 44.088C54.3605 46.7205 52.7405 49.0809 50.6474 50.973C49.8828 51.6615 49.0792 52.3095 48.2401 52.9073C47.3393 53.4257 46.4629 53.9652 45.5395 54.3929C43.8401 55.1575 42.0581 55.7213 40.2291 56.0793C38.4924 56.3904 36.7315 56.5313 34.964 56.507H19.3487V56.4843L19.3552 56.4795Z" fill="#FEFEFD"/>
</g>
<defs>
<clipPath id="clip0_1013_9350">
<rect width="72" height="72" fill="white" transform="translate(0.5 0.5)"/>
</clipPath>
</defs>
</svg>
