<svg width="151" height="151" viewBox="0 0 151 151" fill="none" xmlns="http://www.w3.org/2000/svg">
<g clip-path="url(#clip0_1013_9377)">
<g clip-path="url(#clip1_1013_9377)" filter="url(#filter0_f_1013_9377)">
<path d="M154.082 -31.0036L152.844 -29.8242L129.04 11.4052L129.217 12.064L154.886 11.8007L154.082 -31.0036Z" fill="#343434"/>
<path d="M154.084 -31.0032L116.611 -10.2976L129.218 12.0644L140.772 -7.94717L154.084 -31.0032Z" fill="#8C8C8C"/>
<path d="M127.126 15.6874L126.724 15.8388L118.245 30.5253L118.083 31.3497L152.803 15.4367L127.126 15.6874Z" fill="#3C3C3B"/>
<path d="M118.083 31.35L127.126 15.6877L114.516 -6.66846L118.083 31.35Z" fill="#8C8C8C"/>
<path d="M129.22 12.0648L154.889 11.8015L140.773 -7.94678L129.22 12.0648Z" fill="#141414"/>
<path d="M116.614 -10.298L129.221 12.064L140.775 -7.94757L116.614 -10.298Z" fill="#393939"/>
</g>
<g clip-path="url(#clip2_1013_9377)" filter="url(#filter1_f_1013_9377)">
<path d="M179.919 123.709C175.111 142.994 155.577 154.731 136.289 149.922C117.009 145.114 105.272 125.579 110.082 106.295C114.888 87.0071 134.421 75.2692 153.704 80.0772C172.99 84.8853 184.727 104.422 179.918 123.709L179.919 123.709H179.919Z" fill="#F7931A"/>
<path d="M160.877 109.871C161.594 105.08 157.946 102.505 152.959 100.787L154.577 94.2974L150.626 93.3131L149.051 99.6318C148.013 99.3728 146.946 99.1287 145.886 98.8868L147.473 92.5263L143.525 91.542L141.906 98.0295C141.046 97.8338 140.202 97.6404 139.383 97.4366L139.388 97.4162L133.94 96.0558L132.889 100.275C132.889 100.275 135.82 100.947 135.758 100.988C137.358 101.388 137.647 102.447 137.599 103.286L135.756 110.679C135.866 110.707 136.009 110.747 136.167 110.811C136.035 110.778 135.895 110.742 135.749 110.708L133.166 121.064C132.971 121.55 132.474 122.28 131.356 122.003C131.396 122.06 128.485 121.286 128.485 121.286L126.523 125.808L131.664 127.09C132.621 127.33 133.558 127.58 134.481 127.816L132.846 134.38L136.792 135.365L138.411 128.87C139.489 129.163 140.535 129.433 141.559 129.687L139.945 136.151L143.896 137.135L145.531 130.584C152.267 131.859 157.332 131.345 159.464 125.252C161.182 120.346 159.379 117.517 155.835 115.672C158.416 115.076 160.36 113.379 160.878 109.872L160.877 109.871L160.877 109.871ZM151.851 122.527C150.63 127.433 142.371 124.781 139.693 124.116L141.862 115.42C144.54 116.089 153.127 117.411 151.851 122.527H151.851ZM153.073 109.8C151.959 114.262 145.085 111.995 142.855 111.439L144.822 103.552C147.052 104.108 154.233 105.146 153.073 109.8H153.073Z" fill="white"/>
</g>
<g clip-path="url(#clip3_1013_9377)" filter="url(#filter2_f_1013_9377)">
<path d="M11 -8C24.2561 -8 35 2.74611 35 16C35 29.2561 24.2561 40 11 40C-2.25389 40 -13 29.255 -13 16C-13 2.74611 -2.25389 -8 11 -8Z" fill="#F5AC37"/>
<path d="M11.8844 17.6947H21.004C21.1984 17.6947 21.2902 17.6947 21.3042 17.4399C21.3788 16.5121 21.3788 15.579 21.3042 14.6502C21.3042 14.4698 21.2146 14.3953 21.0191 14.3953H2.86954C2.6449 14.3953 2.58442 14.4698 2.58442 14.6804V17.3502C2.58442 17.6947 2.58442 17.6947 2.94406 17.6947H11.8844V17.6947ZM20.2858 11.2752C20.3117 11.2071 20.3117 11.1326 20.2858 11.0656C20.1335 10.7341 19.9532 10.4176 19.7436 10.1206C19.4283 9.61301 19.0567 9.14537 18.6334 8.72525C18.4336 8.47144 18.2025 8.24356 17.9433 8.05024C16.6451 6.94539 15.1017 6.16346 13.4428 5.77034C12.6058 5.58241 11.7505 5.49277 10.8929 5.50033H2.83822C2.61358 5.50033 2.58334 5.58997 2.58334 5.78546V11.1099C2.58334 11.3346 2.58334 11.395 2.86846 11.395H20.1778C20.1778 11.395 20.3279 11.3648 20.3582 11.2752H20.2847H20.2858ZM20.2858 20.8149C20.0309 20.7868 19.7739 20.7868 19.519 20.8149H2.88466C2.66002 20.8149 2.58442 20.8149 2.58442 21.1151V26.3208C2.58442 26.5605 2.58442 26.621 2.88466 26.621H10.5646C10.9318 26.6491 11.299 26.6232 11.6587 26.5465C12.7732 26.4666 13.8695 26.2247 14.9149 25.8261C15.2951 25.6944 15.6623 25.5227 16.009 25.3164H16.1137C17.9141 24.38 19.3764 22.909 20.2988 21.1032C20.2988 21.1032 20.4035 20.8764 20.2858 20.817V20.8149ZM-0.42989 29.32V29.2303V25.7354V24.5506V21.0255C-0.42989 20.83 -0.42989 20.8008 -0.669652 20.8008H-3.9248C-4.10517 20.8008 -4.17969 20.8008 -4.17969 20.5611V17.7109H-0.699892C-0.505491 17.7109 -0.42989 17.7109 -0.42989 17.4561V14.6361C-0.42989 14.4558 -0.42989 14.4115 -0.669652 14.4115H-3.9248C-4.10517 14.4115 -4.17969 14.4115 -4.17969 14.1717V11.5322C-4.17969 11.367 -4.17969 11.3227 -3.93992 11.3227H-0.715013C-0.49037 11.3227 -0.42989 11.3227 -0.42989 11.0375V2.95259C-0.42989 2.71283 -0.42989 2.65234 -0.129647 2.65234H11.1197C11.9362 2.68474 12.7473 2.77438 13.5498 2.92235C15.2033 3.22799 16.792 3.81876 18.2446 4.66224C19.2079 5.22925 20.0946 5.91398 20.8841 6.70239C21.4781 7.31907 22.0138 7.98652 22.489 8.69717C22.961 9.41753 23.353 10.1876 23.6608 10.9922C23.6986 11.2017 23.8995 11.3432 24.109 11.3076H26.7939C27.1385 11.3076 27.1385 11.3076 27.1536 11.638V14.0983C27.1536 14.3381 27.0639 14.3985 26.8231 14.3985H24.7527C24.5432 14.3985 24.4827 14.3985 24.4978 14.6685C24.5799 15.5822 24.5799 16.4992 24.4978 17.4129C24.4978 17.6677 24.4978 17.698 24.784 17.698H27.1525C27.2573 17.833 27.1525 17.968 27.1525 18.1041C27.1676 18.2779 27.1676 18.454 27.1525 18.6279V20.4434C27.1525 20.6982 27.078 20.7738 26.8523 20.7738H24.0172C23.8196 20.736 23.6274 20.8624 23.582 21.059C22.907 22.814 21.827 24.3876 20.4316 25.649C19.9218 26.108 19.3861 26.54 18.8267 26.9385C18.2262 27.2842 17.6419 27.6438 17.0263 27.9289C15.8934 28.4387 14.7054 28.8145 13.4861 29.0532C12.3283 29.2606 11.1543 29.3545 9.97602 29.3383H-0.43421V29.3232L-0.42989 29.32Z" fill="#FEFEFD"/>
</g>
<g clip-path="url(#clip4_1013_9377)" filter="url(#filter3_f_1013_9377)">
<path d="M35.3827 160.265C48.3407 152.784 52.7467 136.341 45.2654 123.383C37.7841 110.425 21.3407 106.019 8.38269 113.5C-4.5753 120.981 -8.98129 137.425 -1.5 150.383C5.9813 163.341 22.4247 167.747 35.3827 160.265Z" fill="#2775CA"/>
<path d="M30.4513 136.872C28.4826 133.462 25.7617 133.474 21.3885 135.35C18.2406 136.648 17.2061 136.206 16.4185 134.842C15.6309 133.477 16.0991 132.038 18.0476 130.913C19.8013 129.901 21.1132 129.923 22.444 131.103C22.7102 131.339 23.115 131.365 23.4073 131.196L24.966 130.296C25.3557 130.071 25.4793 129.61 25.2544 129.221L25.1981 129.123C23.5707 127.205 20.8608 126.561 18.5076 127.66L17.1576 125.322C16.9326 124.932 16.4715 124.808 15.9282 124.992L14.4668 125.836C14.077 126.061 13.9534 126.522 14.1373 127.066L15.431 129.306C12.7332 131.384 12.0072 134.401 13.4135 136.837C15.2697 140.052 17.9494 140.193 22.3227 138.318C25.3319 137.23 26.5463 137.308 27.4463 138.867C28.3464 140.426 27.6009 142.285 25.75 143.354C23.2167 144.817 21.721 144.251 20.585 142.958C20.2628 142.625 19.8579 142.599 19.5656 142.767L17.9092 143.724C17.5196 143.949 17.3961 144.41 17.6211 144.799L17.6774 144.897C19.4732 147.108 22.0446 147.961 25.541 146.592L26.891 148.931C27.1159 149.32 27.577 149.444 28.1203 149.26L29.5817 148.416C29.9715 148.191 30.0951 147.73 29.9114 147.187L28.5614 144.849C31.2029 142.674 31.9701 139.503 30.4513 136.872V136.872Z" fill="white"/>
<path d="M24.9563 153.683C15.782 155.343 6.99107 149.117 5.4853 139.983C4.58421 135.048 5.99938 130.074 9.15009 126.306C9.42743 125.886 9.45345 125.482 9.17211 124.994L8.38466 123.63C8.15961 123.241 7.79609 123.061 7.35014 123.188C7.25263 123.245 7.05785 123.357 7.01651 123.511C-0.55156 131.777 0.0634528 144.543 8.32999 152.111C13.2337 156.554 19.8419 158.325 26.3103 156.929C26.8125 156.898 27.0899 156.479 26.9621 156.033C27.0035 155.879 26.9472 155.781 26.8347 155.587L26.0471 154.223C25.8784 153.93 25.3612 153.709 24.9563 153.683ZM17.7337 117.323C17.2315 117.353 16.9542 117.773 17.0819 118.219C17.0407 118.373 17.0969 118.47 17.2095 118.665L17.9969 120.029C18.222 120.419 18.7392 120.64 19.144 120.666C28.3183 119.006 37.1093 125.233 38.615 134.366C39.5161 139.302 38.1009 144.276 34.9502 148.043C34.6729 148.463 34.6469 148.868 34.9282 149.355L35.7157 150.719C35.9407 151.109 36.3042 151.289 36.7502 151.161C36.8477 151.105 37.0425 150.992 37.0838 150.839C44.6519 142.572 44.0369 129.807 35.7703 122.238C30.8104 117.698 24.1046 115.983 17.7337 117.323V117.323Z" fill="white"/>
</g>
<g clip-path="url(#clip5_1013_9377)" filter="url(#filter4_f_1013_9377)">
<path fill-rule="evenodd" clip-rule="evenodd" d="M40.5034 72.3633L42.4473 96.1519C42.4538 96.2408 42.4885 96.3254 42.5462 96.3934C42.604 96.4614 42.6819 96.5092 42.7684 96.5298L79.9407 105.761C80.0464 105.787 80.1578 105.771 80.2518 105.717C80.3458 105.663 80.4151 105.574 80.4451 105.469L91.0381 68.6633C91.0635 68.578 91.0611 68.4867 91.031 68.4026C91.001 68.3186 90.9451 68.2463 90.8713 68.1962L71.2418 54.6184C71.177 54.5721 71.1004 54.5455 71.0212 54.5416C70.9419 54.5378 70.8633 54.5569 70.7949 54.5966L40.7117 71.9652C40.6423 72.0041 40.5856 72.0624 40.5487 72.1331C40.5117 72.2037 40.496 72.2837 40.5034 72.3633V72.3633V72.3633Z" fill="#50AF95"/>
<path fill-rule="evenodd" clip-rule="evenodd" d="M70.8338 82.3209C70.6698 82.4328 69.8146 82.9974 67.8386 84.1383C66.2669 85.0457 65.1237 85.6425 64.7214 85.8498C58.4924 89.0878 53.3449 90.6417 52.6097 89.3684C51.8746 88.0951 55.7949 84.4156 61.7111 80.6358L64.1099 84.7906C64.5237 84.5901 65.7 84.001 67.2716 83.0936C69.1576 82.0047 70.0564 81.3804 70.2173 81.2664L67.8194 77.113C74.0371 73.8853 79.1747 72.3372 79.9082 73.6076C80.6417 74.8781 76.7336 78.5524 70.8272 82.3227L70.8338 82.3209ZM67.577 76.68L65.4304 72.962L73.8889 68.0785L70.6155 62.4089L47.5863 75.7049L50.8596 81.3745L59.3166 76.4918L61.4624 80.2083C54.7718 84.4946 50.3932 88.8488 51.3408 90.49C52.2884 92.1313 58.2476 90.5149 65.3058 86.8653L72.1844 98.7794L78.2967 95.2505L71.4156 83.332C78.0905 79.0548 82.4613 74.7071 81.5146 73.0673C80.5678 71.4274 74.6214 73.0364 67.5747 76.6794L67.577 76.68Z" fill="white"/>
</g>
</g>
<defs>
<filter id="filter0_f_1013_9377" x="82.9141" y="-53" width="106.355" height="106.354" filterUnits="userSpaceOnUse" color-interpolation-filters="sRGB">
<feFlood flood-opacity="0" result="BackgroundImageFix"/>
<feBlend mode="normal" in="SourceGraphic" in2="BackgroundImageFix" result="shape"/>
<feGaussianBlur stdDeviation="2" result="effect1_foregroundBlur_1013_9377"/>
</filter>
<filter id="filter1_f_1013_9377" x="105" y="75" width="80" height="80" filterUnits="userSpaceOnUse" color-interpolation-filters="sRGB">
<feFlood flood-opacity="0" result="BackgroundImageFix"/>
<feBlend mode="normal" in="SourceGraphic" in2="BackgroundImageFix" result="shape"/>
<feGaussianBlur stdDeviation="2" result="effect1_foregroundBlur_1013_9377"/>
</filter>
<filter id="filter2_f_1013_9377" x="-17" y="-12" width="56" height="56" filterUnits="userSpaceOnUse" color-interpolation-filters="sRGB">
<feFlood flood-opacity="0" result="BackgroundImageFix"/>
<feBlend mode="normal" in="SourceGraphic" in2="BackgroundImageFix" result="shape"/>
<feGaussianBlur stdDeviation="2" result="effect1_foregroundBlur_1013_9377"/>
</filter>
<filter id="filter3_f_1013_9377" x="-19" y="96" width="81.7656" height="81.7651" filterUnits="userSpaceOnUse" color-interpolation-filters="sRGB">
<feFlood flood-opacity="0" result="BackgroundImageFix"/>
<feBlend mode="normal" in="SourceGraphic" in2="BackgroundImageFix" result="shape"/>
<feGaussianBlur stdDeviation="2" result="effect1_foregroundBlur_1013_9377"/>
</filter>
<filter id="filter4_f_1013_9377" x="27.5" y="45.2822" width="80.9961" height="78.4351" filterUnits="userSpaceOnUse" color-interpolation-filters="sRGB">
<feFlood flood-opacity="0" result="BackgroundImageFix"/>
<feBlend mode="normal" in="SourceGraphic" in2="BackgroundImageFix" result="shape"/>
<feGaussianBlur stdDeviation="2" result="effect1_foregroundBlur_1013_9377"/>
</filter>
<clipPath id="clip0_1013_9377">
<rect width="151" height="151" fill="white"/>
</clipPath>
<clipPath id="clip1_1013_9377">
<rect width="72" height="72" fill="white" transform="translate(122.914 -49) rotate(30)"/>
</clipPath>
<clipPath id="clip2_1013_9377">
<rect width="72" height="72" fill="white" transform="translate(109 79)"/>
</clipPath>
<clipPath id="clip3_1013_9377">
<rect width="48" height="48" fill="white" transform="translate(-13 -8)"/>
</clipPath>
<clipPath id="clip4_1013_9377">
<rect width="54" height="54" fill="white" transform="translate(-15 127) rotate(-30)"/>
</clipPath>
<clipPath id="clip5_1013_9377">
<rect width="56" height="49" fill="white" transform="translate(31.5 77.2822) rotate(-30)"/>
</clipPath>
</defs>
</svg>
