<svg width="73" height="63" viewBox="0 0 73 63" fill="none" xmlns="http://www.w3.org/2000/svg">
<g clip-path="url(#clip0_1013_9337)">
<path fill-rule="evenodd" clip-rule="evenodd" d="M13.6821 0.491209L0.553973 28.0669C0.504016 28.1694 0.488186 28.2853 0.508795 28.3975C0.529405 28.5097 0.585374 28.6124 0.668518 28.6905L36.1244 62.6658C36.2251 62.7624 36.3593 62.8163 36.4988 62.8163C36.6384 62.8163 36.7725 62.7624 36.8732 62.6658L72.3291 28.6926C72.4123 28.6145 72.4682 28.5118 72.4888 28.3996C72.5095 28.2874 72.4936 28.1715 72.4437 28.069L59.3155 0.49333C59.2732 0.40072 59.205 0.322267 59.1193 0.267348C59.0335 0.212429 58.9338 0.183367 58.8319 0.183635H14.17C14.0676 0.182362 13.9671 0.210724 13.8806 0.2653C13.794 0.319875 13.7251 0.398333 13.6821 0.491209Z" fill="#50AF95"/>
<path fill-rule="evenodd" clip-rule="evenodd" d="M41.0578 30.8987C40.8033 30.9178 39.4881 30.9963 36.5545 30.9963C34.2212 30.9963 32.5645 30.9263 31.9833 30.8987C22.9661 30.502 16.2355 28.9324 16.2355 27.053C16.2355 25.1736 22.9661 23.606 31.9833 23.203V29.3354C32.573 29.3778 34.2615 29.4775 36.5948 29.4775C39.3948 29.4775 40.7969 29.3608 41.0493 29.3375V23.2072C50.0475 23.6081 56.7632 25.1778 56.7632 27.053C56.7632 28.9281 50.0496 30.4978 41.0493 30.8966L41.0578 30.8987ZM41.0578 22.573V17.0854H53.6153V8.71729H19.4258V17.0854H31.9812V22.5709C21.7761 23.0396 14.1016 25.0612 14.1016 27.4836C14.1016 29.906 21.7761 31.9254 31.9812 32.3963V49.9811H41.0557V32.3899C51.2375 31.9211 58.8993 29.9017 58.8993 27.4815C58.8993 25.0612 51.2438 23.0418 41.0557 22.5709L41.0578 22.573Z" fill="white"/>
</g>
<defs>
<clipPath id="clip0_1013_9337">
<rect width="72" height="62.6328" fill="white" transform="translate(0.5 0.183594)"/>
</clipPath>
</defs>
</svg>
