<svg width="73" height="73" viewBox="0 0 73 73" fill="none" xmlns="http://www.w3.org/2000/svg">
<g clip-path="url(#clip0_1013_9343)">
<path d="M36.5 72.5C56.4501 72.5 72.5 56.4501 72.5 36.5C72.5 16.5499 56.4501 0.5 36.5 0.5C16.5499 0.5 0.5 16.5499 0.5 36.5C0.5 56.4501 16.5499 72.5 36.5 72.5Z" fill="#2775CA"/>
<path d="M46.4007 42.1998C46.4007 36.9499 43.2507 35.1499 36.9507 34.4C32.4507 33.7999 31.5507 32.6 31.5507 30.4998C31.5507 28.3996 33.0508 27.0499 36.0507 27.0499C38.7507 27.0499 40.2508 27.9499 41.0007 30.1999C41.1508 30.6499 41.6008 30.9498 42.0508 30.9498H44.4505C45.0507 30.9498 45.5007 30.4998 45.5007 29.9V29.7499C44.9005 26.4498 42.2005 23.8999 38.7507 23.6V20C38.7507 19.3999 38.3007 18.9499 37.5508 18.7998H35.3008C34.7007 18.7998 34.2507 19.2498 34.1005 20V23.4499C29.6005 24.05 26.7508 27.0499 26.7508 30.8C26.7508 35.75 29.7507 37.6998 36.0507 38.45C40.2508 39.1999 41.6008 40.0999 41.6008 42.5C41.6008 44.9002 39.5005 46.55 36.6508 46.55C32.7505 46.55 31.4005 44.8998 30.9505 42.6498C30.8008 42.05 30.3508 41.7498 29.9008 41.7498H27.3505C26.7508 41.7498 26.3008 42.1998 26.3008 42.7999V42.95C26.9005 46.6998 29.3007 49.3998 34.2507 50.15V53.75C34.2507 54.3498 34.7007 54.7998 35.4505 54.9499H37.7005C38.3007 54.9499 38.7507 54.4999 38.9008 53.75V50.15C43.4008 49.3998 46.4007 46.2498 46.4007 42.1998Z" fill="white"/>
<path d="M28.8529 57.9498C17.1529 53.75 11.1528 40.7 15.503 29.1498C17.753 22.8498 22.703 18.0499 28.8529 15.7999C29.453 15.5 29.7529 15.05 29.7529 14.2998V12.1999C29.7529 11.5998 29.453 11.1498 28.8529 11C28.7028 11 28.4029 11 28.2528 11.1498C14.0029 15.6498 6.2028 30.8 10.7028 45.0499C13.4028 53.4498 19.8529 59.8999 28.2528 62.5999C28.8529 62.8998 29.453 62.5999 29.6028 61.9998C29.7529 61.85 29.7529 61.6999 29.7529 61.4V59.2998C29.7529 58.8498 29.3029 58.25 28.8529 57.9498ZM44.753 11.1498C44.1529 10.8499 43.5528 11.1498 43.403 11.7499C43.2529 11.9 43.2529 12.0498 43.2529 12.35V14.4499C43.2529 15.05 43.7029 15.6498 44.1529 15.95C55.8529 20.1498 61.853 33.1998 57.5028 44.75C55.2528 51.05 50.3028 55.8499 44.1529 58.0999C43.5528 58.3998 43.2529 58.8498 43.2529 59.6V61.6999C43.2529 62.3 43.5528 62.75 44.1529 62.8998C44.303 62.8998 44.6029 62.8998 44.753 62.75C59.0029 58.25 66.803 43.0998 62.303 28.8499C59.603 20.2999 53.0028 13.8498 44.753 11.1498Z" fill="white"/>
</g>
<defs>
<clipPath id="clip0_1013_9343">
<rect width="72" height="72" fill="white" transform="translate(0.5 0.5)"/>
</clipPath>
</defs>
</svg>
