<svg width="1440" height="4223" viewBox="0 0 1440 4223" fill="none"
    xmlns="http://www.w3.org/2000/svg">
    <g opacity="0.36">
        <g clip-path="url(#clip0_1013_9197)">
            <g filter="url(#filter0_f_1013_9197)">
                <path
                    d="M176.591 3422.85C38.54 3420.05 -112.699 3885.32 -113.56 3893.57C-174.819 4200.41 251.267 3840.89 262.871 3834.19C17.8617 3805.71 217.864 3517.48 176.591 3422.85Z"
                    fill="#3B37FF" />
                <path
                    d="M32.0716 3381.67C-10.2261 3308.76 -133.913 3498.27 -190.47 3602.15C-202.489 3741.92 115.185 3762.82 70.3061 3665.53C0.00691289 3513.13 84.9438 3472.82 32.0716 3381.67Z"
                    fill="#37E7FF" />
                <path
                    d="M33.4208 3422.97C-11.776 3339.02 -147.104 3566.11 -209.119 3690.14C-270.971 3813.61 185.702 3828.2 58.2585 3769.23C-69.1849 3710.27 89.9168 3527.9 33.4208 3422.97Z"
                    fill="#FF37D3" />
                <path
                    d="M19.8681 3431.36C-56.9369 3429.89 -141.374 3688.51 -141.858 3693.09C-176.134 3863.62 61.152 3663.59 67.6124 3659.86C-68.6843 3644.19 42.7716 3483.91 19.8681 3431.36Z"
                    fill="#EB1B1B" />
                <path
                    d="M54.7952 3490.19C31.9729 3441.4 -67.8671 3623.1 -114.934 3720.05C-134.979 3760.11 -57.7696 3756.2 39.3806 3783.48C136.531 3810.77 118.932 3737.25 67.6671 3655.83C16.4018 3574.42 83.3231 3551.17 54.7952 3490.19Z"
                    fill="#FFF500" />
                <path
                    d="M46.1098 3501.11C31.3462 3487.87 -61.6483 3669.12 -106.3 3761.4C-23.1243 3770.02 132.149 3775.42 87.8373 3728.09C32.4473 3668.94 36.5763 3605.29 43.5237 3579.73C50.471 3554.18 64.5642 3517.66 46.1098 3501.11Z"
                    fill="white" />
            </g>
            <g style="mix-blend-mode:color-dodge" filter="url(#filter1_f_1013_9197)">
                <path
                    d="M132.306 3371.38C-2.86352 3399.57 -46.0467 3886.89 -45.0372 3895.13C-36.0108 4207.89 298.72 3762.07 308.528 3752.94C63.3654 3780.06 193.727 3454.36 132.306 3371.38Z"
                    fill="#3B37FF" />
                <path
                    d="M8.66537 3376.39C-33.6324 3303.48 -157.32 3492.99 -213.876 3596.86C-225.896 3736.64 91.7783 3757.54 46.8999 3660.25C-23.3993 3507.85 61.5376 3467.54 8.66537 3376.39Z"
                    fill="#37E7FF" />
                <path
                    d="M120.328 3395.82C116.494 3346.96 -9.3348 3582.1 -122.211 3662.99C-184.064 3786.46 272.61 3801.05 145.166 3742.09C17.7227 3683.12 129.652 3514.63 120.328 3395.82Z"
                    fill="#FF37D3" />
                <path
                    d="M-45.4982 3380.99C-120.109 3399.27 -135.381 3670.89 -134.673 3675.45C-124.056 3849.07 53.9764 3594.86 59.2638 3589.6C-76.4918 3609.41 -9.87966 3425.91 -45.4982 3380.99Z"
                    fill="#EB1B1B" />
                <path
                    d="M128.435 3542.74C132.818 3489.06 -44.0005 3597.32 -132.958 3658.16C-170.228 3682.99 -101.248 3717.9 -30.4221 3789.77C40.4038 3861.65 61.5884 3789.08 57.4537 3692.96C53.3191 3596.84 122.957 3609.85 128.435 3542.74Z"
                    fill="#FFF500" />
                <path
                    d="M82.122 3495.57C67.5669 3482.1 -28.2446 3661.88 -74.3309 3753.46C8.70033 3763.37 163.871 3771.19 120.303 3723.18C65.8425 3663.17 70.9641 3599.59 78.3094 3574.15C85.6546 3548.7 100.316 3512.41 82.122 3495.57Z"
                    fill="white" />
            </g>
            <g filter="url(#filter2_f_1013_9197)">
                <path
                    d="M1345.59 4242.85C1207.54 4240.05 1056.3 4705.32 1055.44 4713.57C994.181 5020.41 1420.27 4660.89 1431.87 4654.19C1186.86 4625.71 1386.86 4337.48 1345.59 4242.85Z"
                    fill="#3B37FF" />
                <path
                    d="M1201.07 4201.67C1158.77 4128.76 1035.09 4318.27 978.53 4422.15C966.511 4561.92 1284.18 4582.82 1239.31 4485.53C1169.01 4333.13 1253.94 4292.82 1201.07 4201.67Z"
                    fill="#37E7FF" />
                <path
                    d="M1202.42 4242.97C1157.22 4159.02 1021.9 4386.11 959.881 4510.14C898.029 4633.61 1354.7 4648.2 1227.26 4589.23C1099.82 4530.27 1258.92 4347.9 1202.42 4242.97Z"
                    fill="#FF37D3" />
                <path
                    d="M1188.87 4251.36C1112.06 4249.89 1027.63 4508.51 1027.14 4513.09C992.866 4683.62 1230.15 4483.59 1236.61 4479.86C1100.32 4464.19 1211.77 4303.91 1188.87 4251.36Z"
                    fill="#EB1B1B" />
            </g>
            <g filter="url(#filter3_f_1013_9197)">
                <path
                    d="M1044.74 807.288C1147.14 817.041 1285.37 479.798 1286.46 473.715C1349.03 249.165 1045.21 434.569 1036.22 438.901C1217.82 620.604 1019.34 734.691 1044.74 807.288Z"
                    fill="#3B37FF" />
                <path
                    d="M954.162 757.45C1050.65 763.462 1170.85 442.889 1171.7 437.149C1224.05 224.601 951.769 328.634 943.444 332.973C1055.12 504.412 1008.63 613.377 954.162 757.45Z"
                    fill="#37E7FF" />
                <path
                    d="M1004.92 722.046C1112.64 639.573 1099.57 460.805 1060.21 417.755C938.773 347.177 757.921 222.996 911.335 389.344C1083.2 575.7 843.1 845.935 1004.92 722.046Z"
                    fill="#FF37D3" />
                <path
                    d="M979.583 704.313C1005.31 738.876 1094.64 552.569 1108.18 444.52C1087.81 274.999 920.994 237.137 973.34 404.942C989.194 455.765 1042.11 509.741 988.766 624.263C977.237 649.014 972.654 695.005 979.583 704.313Z"
                    fill="white" />
            </g>
            <g style="mix-blend-mode:color-dodge" filter="url(#filter4_f_1013_9197)">
                <path
                    d="M984.291 821.285C1055.7 788.856 1241.75 259.885 1353.45 311.864C1449 -31.0602 985.019 252.081 971.285 258.697C922.573 188.071 759.014 628.26 984.291 821.285Z"
                    fill="#3B37FF" />
                <path
                    d="M1017.77 764.536C1114.25 770.548 1234.45 449.976 1235.31 444.235C1287.66 231.687 1015.37 335.72 1007.05 340.059C1118.73 511.499 1072.24 620.464 1017.77 764.536Z"
                    fill="#37E7FF" />
                <path
                    d="M923.619 566.409C1031.34 483.936 1018.27 305.168 978.911 262.118C857.473 191.54 676.62 67.3578 830.034 233.706C1001.9 420.062 761.799 690.298 923.619 566.409Z"
                    fill="#FF37D3" />
            </g>
            <g filter="url(#filter5_f_1013_9197)">
                <path
                    d="M687.76 1210.61C753.275 1289.92 1089.48 1149.19 1094.56 1145.67C1297.58 1031.13 951.65 947.397 942.228 944.101C942.152 1200.99 721.133 1141.32 687.76 1210.61Z"
                    fill="#3B37FF" />
                <path
                    d="M658.955 1111.33C722.93 1183.8 1034.6 1042.12 1039.27 1038.67C1226.58 925.387 960.482 806.416 951.527 803.597C909.268 1003.79 799.346 1047.97 658.955 1111.33Z"
                    fill="#37E7FF" />
                <path
                    d="M719.877 1122.18C854.367 1140.04 971.53 1004.39 974.141 946.115C938.177 810.339 898.105 594.647 888.959 820.753C878.713 1074.05 517.851 1095.36 719.877 1122.18Z"
                    fill="#FF37D3" />
                <path
                    d="M714.503 1091.73C708.257 1134.36 903.159 1065.79 989.137 998.961C1094.6 864.69 1003.42 719.957 921.776 875.627C897.049 922.776 896.298 998.359 777.6 1041.62C751.946 1050.97 716.185 1080.25 714.503 1091.73Z"
                    fill="white" />
            </g>
            <g style="mix-blend-mode:color-dodge" filter="url(#filter6_f_1013_9197)">
                <path
                    d="M635.118 1177.77C708.54 1205.33 1214.14 962.847 1256.37 1078.59C1566.42 903.669 1038.12 775.794 1023.73 770.761C1039.23 686.377 612.312 881.984 635.118 1177.77Z"
                    fill="#3B37FF" />
                <path
                    d="M698.92 1161.31C762.895 1233.79 1074.57 1092.1 1079.23 1088.65C1266.54 975.373 1000.45 856.401 991.492 853.583C949.233 1053.78 839.311 1097.95 698.92 1161.31Z"
                    fill="#37E7FF" />
                <path
                    d="M772.444 954.64C906.933 972.495 1024.1 836.842 1026.71 778.571C990.744 642.795 950.672 427.103 941.526 653.209C931.28 906.51 570.417 927.819 772.444 954.64Z"
                    fill="#FF37D3" />
            </g>
            <g filter="url(#filter7_f_1013_9197)">
                <path
                    d="M250.607 760.581C112.556 757.785 -38.6836 1223.05 -39.5447 1231.3C-100.803 1538.14 325.282 1178.62 336.887 1171.92C91.8774 1143.44 291.88 855.213 250.607 760.581Z"
                    fill="#3B37FF" />
                <path
                    d="M106.087 719.405C63.7895 646.488 -59.8979 836.003 -116.454 939.876C-128.474 1079.65 189.2 1100.55 144.322 1003.26C74.0225 850.861 158.959 810.553 106.087 719.405Z"
                    fill="#37E7FF" />
                <path
                    d="M107.436 760.696C62.2396 676.749 -73.0888 903.836 -135.103 1027.87C-196.956 1151.34 259.718 1165.93 132.274 1106.97C4.83068 1048 163.932 865.629 107.436 760.696Z"
                    fill="#FF37D3" />
                <path
                    d="M93.8837 769.089C17.0787 767.622 -67.3585 1026.24 -67.8428 1030.82C-102.118 1201.35 135.168 1001.32 141.628 997.589C5.33128 981.92 116.787 821.644 93.8837 769.089Z"
                    fill="#EB1B1B" />
                <path
                    d="M128.811 827.917C105.989 779.126 6.14857 960.832 -40.9187 1057.78C-60.9632 1097.84 16.246 1093.93 113.396 1121.21C210.546 1148.5 192.948 1074.98 141.683 993.562C90.4175 912.149 157.339 888.905 128.811 827.917Z"
                    fill="#FFF500" />
                <path
                    d="M120.125 838.839C105.362 825.597 12.3673 1006.85 -32.2845 1099.13C50.8913 1107.75 206.165 1113.15 161.853 1065.82C106.463 1006.67 110.592 943.02 117.539 917.464C124.487 891.908 138.58 855.392 120.125 838.839Z"
                    fill="white" />
            </g>
            <g style="mix-blend-mode:color-dodge" filter="url(#filter8_f_1013_9197)">
                <path
                    d="M206.322 709.108C71.1521 737.305 27.969 1224.62 28.9784 1232.86C38.0048 1545.63 372.735 1099.8 382.544 1090.67C137.381 1117.79 267.743 792.09 206.322 709.108Z"
                    fill="#3B37FF" />
                <path
                    d="M82.681 714.125C40.3832 641.207 -83.3041 830.723 -139.861 934.595C-151.88 1074.37 165.794 1095.27 120.916 997.979C50.6163 845.58 135.553 805.272 82.681 714.125Z"
                    fill="#37E7FF" />
                <path
                    d="M194.344 733.547C190.51 684.688 64.6808 919.83 -48.1958 1000.72C-110.048 1124.19 346.625 1138.78 219.182 1079.82C91.7383 1020.85 203.668 852.357 194.344 733.547Z"
                    fill="#FF37D3" />
                <path
                    d="M28.5174 718.718C-46.0938 737.003 -61.3654 1008.62 -60.657 1013.18C-50.0404 1186.8 127.992 932.588 133.279 927.326C-2.47618 947.143 64.136 763.64 28.5174 718.718Z"
                    fill="#EB1B1B" />
                <path
                    d="M202.451 880.472C206.834 826.786 30.0151 935.046 -58.9419 995.887C-96.2129 1020.72 -27.2324 1055.63 43.5935 1127.5C114.419 1199.38 135.604 1126.81 131.469 1030.69C127.335 934.57 196.973 947.579 202.451 880.472Z"
                    fill="#FFF500" />
                <path
                    d="M156.138 833.304C141.583 819.833 45.7711 999.613 -0.315278 1091.19C82.716 1101.1 237.886 1108.92 194.318 1060.91C139.858 1000.9 144.98 937.322 152.325 911.878C159.67 886.434 174.331 850.142 156.138 833.304Z"
                    fill="white" />
            </g>
            <g filter="url(#filter9_f_1013_9197)">
                <path
                    d="M1226.59 1084.85C1088.54 1082.05 937.301 1547.32 936.44 1555.57C875.181 1862.41 1301.27 1502.89 1312.87 1496.19C1067.86 1467.71 1267.86 1179.48 1226.59 1084.85Z"
                    fill="#3B37FF" />
                <path
                    d="M1082.07 1043.67C1039.77 970.757 916.087 1160.27 859.53 1264.15C847.511 1403.92 1165.18 1424.82 1120.31 1327.53C1050.01 1175.13 1134.94 1134.82 1082.07 1043.67Z"
                    fill="#37E7FF" />
                <path
                    d="M1083.42 1084.97C1038.22 1001.02 902.896 1228.11 840.881 1352.14C779.029 1475.61 1235.7 1490.2 1108.26 1431.23C980.815 1372.27 1139.92 1189.9 1083.42 1084.97Z"
                    fill="#FF37D3" />
                <path
                    d="M1069.87 1093.36C993.063 1091.89 908.626 1350.51 908.142 1355.09C873.866 1525.62 1111.15 1325.59 1117.61 1321.86C981.316 1306.19 1092.77 1145.91 1069.87 1093.36Z"
                    fill="#EB1B1B" />
                <path
                    d="M1104.8 1152.19C1081.97 1103.4 982.133 1285.1 935.066 1382.05C915.021 1422.11 992.23 1418.2 1089.38 1445.48C1186.53 1472.77 1168.93 1399.25 1117.67 1317.83C1066.4 1236.42 1133.32 1213.17 1104.8 1152.19Z"
                    fill="#FFF500" />
                <path
                    d="M1096.11 1163.11C1081.35 1149.87 988.352 1331.12 943.7 1423.4C1026.88 1432.02 1182.15 1437.42 1137.84 1390.09C1082.45 1330.94 1086.58 1267.29 1093.52 1241.73C1100.47 1216.18 1114.56 1179.66 1096.11 1163.11Z"
                    fill="white" />
            </g>
            <g style="mix-blend-mode:color-dodge" filter="url(#filter10_f_1013_9197)">
                <path
                    d="M1182.31 1033.38C1047.14 1061.57 1003.95 1548.89 1004.96 1557.13C1013.99 1869.89 1348.72 1424.07 1358.53 1414.94C1113.37 1442.06 1243.73 1116.36 1182.31 1033.38Z"
                    fill="#3B37FF" />
                <path
                    d="M1058.67 1038.39C1016.37 965.476 892.68 1154.99 836.124 1258.86C824.104 1398.64 1141.78 1419.54 1096.9 1322.25C1026.6 1169.85 1111.54 1129.54 1058.67 1038.39Z"
                    fill="#37E7FF" />
                <path
                    d="M1170.33 1057.82C1166.49 1008.96 1040.67 1244.1 927.789 1324.99C865.936 1448.46 1322.61 1463.05 1195.17 1404.09C1067.72 1345.12 1179.65 1176.63 1170.33 1057.82Z"
                    fill="#FF37D3" />
                <path
                    d="M1004.5 1042.99C929.891 1061.27 914.619 1332.89 915.327 1337.45C925.944 1511.07 1103.98 1256.86 1109.26 1251.6C973.508 1271.41 1040.12 1087.91 1004.5 1042.99Z"
                    fill="#EB1B1B" />
                <path
                    d="M1178.44 1204.74C1182.82 1151.06 1006 1259.32 917.042 1320.16C879.772 1344.99 948.752 1379.9 1019.58 1451.77C1090.4 1523.65 1111.59 1451.08 1107.45 1354.96C1103.32 1258.84 1172.96 1271.85 1178.44 1204.74Z"
                    fill="#FFF500" />
                <path
                    d="M1132.12 1157.57C1117.57 1144.1 1021.76 1323.88 975.669 1415.46C1058.7 1425.37 1213.87 1433.19 1170.3 1385.18C1115.84 1325.17 1120.96 1261.59 1128.31 1236.15C1135.65 1210.7 1150.32 1174.41 1132.12 1157.57Z"
                    fill="white" />
            </g>
            <g filter="url(#filter11_f_1013_9197)">
                <path
                    d="M666.591 1084.85C528.54 1082.05 377.301 1547.32 376.44 1555.57C315.181 1862.41 741.267 1502.89 752.871 1496.19C507.862 1467.71 707.864 1179.48 666.591 1084.85Z"
                    fill="#3B37FF" />
                <path
                    d="M522.072 1043.67C479.774 970.757 356.087 1160.27 299.53 1264.15C287.511 1403.92 605.185 1424.82 560.306 1327.53C490.007 1175.13 574.944 1134.82 522.072 1043.67Z"
                    fill="#37E7FF" />
                <path
                    d="M523.421 1084.97C478.224 1001.02 342.896 1228.11 280.881 1352.14C219.029 1475.61 675.702 1490.2 548.259 1431.23C420.815 1372.27 579.917 1189.9 523.421 1084.97Z"
                    fill="#FF37D3" />
                <path
                    d="M509.868 1093.36C433.063 1091.89 348.626 1350.51 348.142 1355.09C313.866 1525.62 551.152 1325.59 557.612 1321.86C421.316 1306.19 532.772 1145.91 509.868 1093.36Z"
                    fill="#EB1B1B" />
                <path
                    d="M544.795 1152.19C521.973 1103.4 422.133 1285.1 375.066 1382.05C355.021 1422.11 432.23 1418.2 529.381 1445.48C626.531 1472.77 608.932 1399.25 557.667 1317.83C506.402 1236.42 573.323 1213.17 544.795 1152.19Z"
                    fill="#FFF500" />
                <path
                    d="M536.11 1163.11C521.346 1149.87 428.352 1331.12 383.7 1423.4C466.876 1432.02 622.149 1437.42 577.837 1390.09C522.447 1330.94 526.576 1267.29 533.524 1241.73C540.471 1216.18 554.564 1179.66 536.11 1163.11Z"
                    fill="white" />
            </g>
            <g style="mix-blend-mode:color-dodge" filter="url(#filter12_f_1013_9197)">
                <path
                    d="M622.306 1033.38C487.136 1061.57 443.953 1548.89 444.963 1557.13C453.989 1869.89 788.72 1424.07 798.528 1414.94C553.365 1442.06 683.727 1116.36 622.306 1033.38Z"
                    fill="#3B37FF" />
                <path
                    d="M498.665 1038.39C456.368 965.476 332.68 1154.99 276.124 1258.86C264.104 1398.64 581.778 1419.54 536.9 1322.25C466.601 1169.85 551.538 1129.54 498.665 1038.39Z"
                    fill="#37E7FF" />
                <path
                    d="M610.328 1057.82C606.494 1008.96 480.665 1244.1 367.789 1324.99C305.936 1448.46 762.61 1463.05 635.166 1404.09C507.723 1345.12 619.652 1176.63 610.328 1057.82Z"
                    fill="#FF37D3" />
                <path
                    d="M444.502 1042.99C369.891 1061.27 354.619 1332.89 355.327 1337.45C365.944 1511.07 543.976 1256.86 549.264 1251.6C413.508 1271.41 480.12 1087.91 444.502 1042.99Z"
                    fill="#EB1B1B" />
                <path
                    d="M618.435 1204.74C622.818 1151.06 446 1259.32 357.042 1320.16C319.772 1344.99 388.752 1379.9 459.578 1451.77C530.404 1523.65 551.588 1451.08 547.454 1354.96C543.319 1258.84 612.957 1271.85 618.435 1204.74Z"
                    fill="#FFF500" />
                <path
                    d="M572.122 1157.57C557.567 1144.1 461.755 1323.88 415.669 1415.46C498.7 1425.37 653.871 1433.19 610.303 1385.18C555.842 1325.17 560.964 1261.59 568.309 1236.15C575.655 1210.7 590.316 1174.41 572.122 1157.57Z"
                    fill="white" />
            </g>
            <g filter="url(#filter13_f_1013_9197)">
                <path
                    d="M250.607 1882.85C112.556 1880.05 -38.6836 2345.32 -39.5447 2353.57C-100.803 2660.41 325.282 2300.89 336.887 2294.19C91.8774 2265.71 291.88 1977.48 250.607 1882.85Z"
                    fill="#3B37FF" />
                <path
                    d="M106.087 1841.67C63.7895 1768.76 -59.8979 1958.27 -116.454 2062.15C-128.474 2201.92 189.2 2222.82 144.322 2125.53C74.0225 1973.13 158.959 1932.82 106.087 1841.67Z"
                    fill="#37E7FF" />
                <path
                    d="M107.436 1882.97C62.2396 1799.02 -73.0888 2026.11 -135.103 2150.14C-196.956 2273.61 259.718 2288.2 132.274 2229.23C4.83068 2170.27 163.932 1987.9 107.436 1882.97Z"
                    fill="#FF37D3" />
                <path
                    d="M93.8837 1891.36C17.0787 1889.89 -67.3585 2148.51 -67.8428 2153.09C-102.118 2323.62 135.168 2123.59 141.628 2119.86C5.33128 2104.19 116.787 1943.91 93.8837 1891.36Z"
                    fill="#EB1B1B" />
                <path
                    d="M128.811 1950.19C105.989 1901.4 6.14857 2083.1 -40.9187 2180.05C-60.9632 2220.11 16.246 2216.2 113.396 2243.48C210.546 2270.77 192.948 2197.25 141.683 2115.83C90.4175 2034.42 157.339 2011.17 128.811 1950.19Z"
                    fill="#FFF500" />
                <path
                    d="M120.125 1961.11C105.362 1947.87 12.3673 2129.12 -32.2845 2221.4C50.8913 2230.02 206.165 2235.42 161.853 2188.09C106.463 2128.94 110.592 2065.29 117.539 2039.73C124.487 2014.18 138.58 1977.66 120.125 1961.11Z"
                    fill="white" />
            </g>
            <g style="mix-blend-mode:color-dodge" filter="url(#filter14_f_1013_9197)">
                <path
                    d="M206.322 1831.38C71.1521 1859.57 27.969 2346.89 28.9784 2355.13C38.0048 2667.89 372.735 2222.07 382.544 2212.94C137.381 2240.06 267.743 1914.36 206.322 1831.38Z"
                    fill="#3B37FF" />
                <path
                    d="M82.681 1836.39C40.3832 1763.48 -83.3041 1952.99 -139.861 2056.86C-151.88 2196.64 165.794 2217.54 120.916 2120.25C50.6163 1967.85 135.553 1927.54 82.681 1836.39Z"
                    fill="#37E7FF" />
                <path
                    d="M194.344 1855.82C190.51 1806.96 64.6808 2042.1 -48.1958 2122.99C-110.048 2246.46 346.625 2261.05 219.182 2202.09C91.7383 2143.12 203.668 1974.63 194.344 1855.82Z"
                    fill="#FF37D3" />
                <path
                    d="M28.5174 1840.99C-46.0938 1859.27 -61.3654 2130.89 -60.657 2135.45C-50.0404 2309.07 127.992 2054.86 133.279 2049.6C-2.47618 2069.41 64.136 1885.91 28.5174 1840.99Z"
                    fill="#EB1B1B" />
                <path
                    d="M202.451 2002.74C206.834 1949.06 30.0151 2057.32 -58.9419 2118.16C-96.2129 2142.99 -27.2324 2177.9 43.5935 2249.77C114.419 2321.65 135.604 2249.08 131.469 2152.96C127.335 2056.84 196.973 2069.85 202.451 2002.74Z"
                    fill="#FFF500" />
                <path
                    d="M156.138 1955.57C141.583 1942.1 45.7711 2121.88 -0.315278 2213.46C82.716 2223.37 237.886 2231.19 194.318 2183.18C139.858 2123.17 144.98 2059.59 152.325 2034.15C159.67 2008.7 174.331 1972.41 156.138 1955.57Z"
                    fill="white" />
            </g>
            <g filter="url(#filter15_f_1013_9197)">
                <path
                    d="M1440.59 3035.85C1302.54 3033.05 1151.3 3498.32 1150.44 3506.57C1089.18 3813.41 1515.27 3453.89 1526.87 3447.19C1281.86 3418.71 1481.86 3130.48 1440.59 3035.85Z"
                    fill="#3B37FF" />
                <path
                    d="M1296.07 2994.67C1253.77 2921.76 1130.09 3111.27 1073.53 3215.15C1061.51 3354.92 1379.18 3375.82 1334.31 3278.53C1264.01 3126.13 1348.94 3085.82 1296.07 2994.67Z"
                    fill="#37E7FF" />
                <path
                    d="M1297.42 3035.97C1252.22 2952.02 1116.9 3179.11 1054.88 3303.14C993.029 3426.61 1449.7 3441.2 1322.26 3382.23C1194.82 3323.27 1353.92 3140.9 1297.42 3035.97Z"
                    fill="#FF37D3" />
                <path
                    d="M1283.87 3044.36C1207.06 3042.89 1122.63 3301.51 1122.14 3306.09C1087.87 3476.62 1325.15 3276.59 1331.61 3272.86C1195.32 3257.19 1306.77 3096.91 1283.87 3044.36Z"
                    fill="#EB1B1B" />
                <path
                    d="M1318.8 3103.19C1295.97 3054.4 1196.13 3236.1 1149.07 3333.05C1129.02 3373.11 1206.23 3369.2 1303.38 3396.48C1400.53 3423.77 1382.93 3350.25 1331.67 3268.83C1280.4 3187.42 1347.32 3164.17 1318.8 3103.19Z"
                    fill="#FFF500" />
                <path
                    d="M1310.11 3114.11C1295.35 3100.87 1202.35 3282.12 1157.7 3374.4C1240.88 3383.02 1396.15 3388.42 1351.84 3341.09C1296.45 3281.94 1300.58 3218.29 1307.52 3192.73C1314.47 3167.18 1328.56 3130.66 1310.11 3114.11Z"
                    fill="white" />
            </g>
            <g style="mix-blend-mode:color-dodge" filter="url(#filter16_f_1013_9197)">
                <path
                    d="M1396.31 2984.38C1261.14 3012.57 1217.95 3499.89 1218.96 3508.13C1227.99 3820.89 1562.72 3375.07 1572.53 3365.94C1327.37 3393.06 1457.73 3067.36 1396.31 2984.38Z"
                    fill="#3B37FF" />
                <path
                    d="M1272.67 2989.39C1230.37 2916.48 1106.68 3105.99 1050.12 3209.86C1038.1 3349.64 1355.78 3370.54 1310.9 3273.25C1240.6 3120.85 1325.54 3080.54 1272.67 2989.39Z"
                    fill="#37E7FF" />
                <path
                    d="M1384.33 3008.82C1380.49 2959.96 1254.67 3195.1 1141.79 3275.99C1079.94 3399.46 1536.61 3414.05 1409.17 3355.09C1281.72 3296.12 1393.65 3127.63 1384.33 3008.82Z"
                    fill="#FF37D3" />
                <path
                    d="M1218.5 2993.99C1143.89 3012.27 1128.62 3283.89 1129.33 3288.45C1139.94 3462.07 1317.98 3207.86 1323.26 3202.6C1187.51 3222.41 1254.12 3038.91 1218.5 2993.99Z"
                    fill="#EB1B1B" />
                <path
                    d="M1392.44 3155.74C1396.82 3102.06 1220 3210.32 1131.04 3271.16C1093.77 3295.99 1162.75 3330.9 1233.58 3402.77C1304.4 3474.65 1325.59 3402.08 1321.45 3305.96C1317.32 3209.84 1386.96 3222.85 1392.44 3155.74Z"
                    fill="#FFF500" />
                <path
                    d="M1346.12 3108.57C1331.57 3095.1 1235.76 3274.88 1189.67 3366.46C1272.7 3376.37 1427.87 3384.19 1384.3 3336.18C1329.84 3276.17 1334.96 3212.59 1342.31 3187.15C1349.65 3161.7 1364.32 3125.41 1346.12 3108.57Z"
                    fill="white" />
            </g>
            <g filter="url(#filter17_f_1013_9197)">
                <path
                    d="M349.912 585.055C321.989 590.92 -156.79 511.12 168.612 -13.7513C302.197 -38.4012 345.139 375.182 349.912 585.055Z"
                    fill="#37E7FF" />
                <path
                    d="M315.17 2.23853C198.673 46.0951 83.4575 203.764 279.816 484.77C503.444 804.8 455.087 246.75 315.17 2.23853Z"
                    fill="#3B37FF" />
            </g>
            <g style="mix-blend-mode:color-dodge" filter="url(#filter18_f_1013_9197)">
                <path
                    d="M314.136 446.371C285.165 447.75 -157.746 346.302 316.178 13.6223C453.762 9.39056 372.143 300.358 314.136 446.371Z"
                    fill="#37E7FF" />
                <path
                    d="M109.502 -91.3005C-7.99665 -7.47249 -93.412 221.404 200.253 533.399C534.702 888.723 330.684 187.565 109.502 -91.3005Z"
                    fill="#3B37FF" />
            </g>
            <g filter="url(#filter19_b_1013_9197)">
                <path d="M0 0H1440V4322H0V0Z" fill="white" fill-opacity="0.7" />
            </g>
        </g>
    </g>
    <defs>
        <filter id="filter0_f_1013_9197" x="-282.727" y="3297.57" width="613.414" height="787.578"
            filterUnits="userSpaceOnUse" color-interpolation-filters="sRGB">
            <feFlood flood-opacity="0" result="BackgroundImageFix" />
            <feBlend mode="normal" in="SourceGraphic" in2="BackgroundImageFix" result="shape" />
            <feGaussianBlur stdDeviation="33.9082" result="effect1_foregroundBlur_1013_9197" />
        </filter>
        <filter id="filter1_f_1013_9197" x="-282.027" y="3292.29" width="658.371" height="781.78"
            filterUnits="userSpaceOnUse" color-interpolation-filters="sRGB">
            <feFlood flood-opacity="0" result="BackgroundImageFix" />
            <feBlend mode="normal" in="SourceGraphic" in2="BackgroundImageFix" result="shape" />
            <feGaussianBlur stdDeviation="33.9082" result="effect1_foregroundBlur_1013_9197" />
        </filter>
        <filter id="filter2_f_1013_9197" x="886.273" y="4117.57" width="613.414" height="787.578"
            filterUnits="userSpaceOnUse" color-interpolation-filters="sRGB">
            <feFlood flood-opacity="0" result="BackgroundImageFix" />
            <feBlend mode="normal" in="SourceGraphic" in2="BackgroundImageFix" result="shape" />
            <feGaussianBlur stdDeviation="33.9082" result="effect1_foregroundBlur_1013_9197" />
        </filter>
        <filter id="filter3_f_1013_9197" x="784.602" y="228.764" width="578.16" height="646.548"
            filterUnits="userSpaceOnUse" color-interpolation-filters="sRGB">
            <feFlood flood-opacity="0" result="BackgroundImageFix" />
            <feBlend mode="normal" in="SourceGraphic" in2="BackgroundImageFix" result="shape" />
            <feGaussianBlur stdDeviation="33.9082" result="effect1_foregroundBlur_1013_9197" />
        </filter>
        <filter id="filter4_f_1013_9197" x="703.301" y="74.7813" width="730.918" height="814.32"
            filterUnits="userSpaceOnUse" color-interpolation-filters="sRGB">
            <feFlood flood-opacity="0" result="BackgroundImageFix" />
            <feBlend mode="normal" in="SourceGraphic" in2="BackgroundImageFix" result="shape" />
            <feGaussianBlur stdDeviation="33.9082" result="effect1_foregroundBlur_1013_9197" />
        </filter>
        <filter id="filter5_f_1013_9197" x="590.723" y="654.472" width="635.41" height="648.155"
            filterUnits="userSpaceOnUse" color-interpolation-filters="sRGB">
            <feFlood flood-opacity="0" result="BackgroundImageFix" />
            <feBlend mode="normal" in="SourceGraphic" in2="BackgroundImageFix" result="shape" />
            <feGaussianBlur stdDeviation="33.9082" result="effect1_foregroundBlur_1013_9197" />
        </filter>
        <filter id="filter6_f_1013_9197" x="566.418" y="486.928" width="855.133" height="762.811"
            filterUnits="userSpaceOnUse" color-interpolation-filters="sRGB">
            <feFlood flood-opacity="0" result="BackgroundImageFix" />
            <feBlend mode="normal" in="SourceGraphic" in2="BackgroundImageFix" result="shape" />
            <feGaussianBlur stdDeviation="33.9082" result="effect1_foregroundBlur_1013_9197" />
        </filter>
        <filter id="filter7_f_1013_9197" x="-208.711" y="635.301" width="613.414" height="787.578"
            filterUnits="userSpaceOnUse" color-interpolation-filters="sRGB">
            <feFlood flood-opacity="0" result="BackgroundImageFix" />
            <feBlend mode="normal" in="SourceGraphic" in2="BackgroundImageFix" result="shape" />
            <feGaussianBlur stdDeviation="33.9082" result="effect1_foregroundBlur_1013_9197" />
        </filter>
        <filter id="filter8_f_1013_9197" x="-208.012" y="630.02" width="658.371" height="781.78"
            filterUnits="userSpaceOnUse" color-interpolation-filters="sRGB">
            <feFlood flood-opacity="0" result="BackgroundImageFix" />
            <feBlend mode="normal" in="SourceGraphic" in2="BackgroundImageFix" result="shape" />
            <feGaussianBlur stdDeviation="33.9082" result="effect1_foregroundBlur_1013_9197" />
        </filter>
        <filter id="filter9_f_1013_9197" x="767.273" y="959.57" width="613.414" height="787.578"
            filterUnits="userSpaceOnUse" color-interpolation-filters="sRGB">
            <feFlood flood-opacity="0" result="BackgroundImageFix" />
            <feBlend mode="normal" in="SourceGraphic" in2="BackgroundImageFix" result="shape" />
            <feGaussianBlur stdDeviation="33.9082" result="effect1_foregroundBlur_1013_9197" />
        </filter>
        <filter id="filter10_f_1013_9197" x="767.973" y="954.29" width="658.371" height="781.78"
            filterUnits="userSpaceOnUse" color-interpolation-filters="sRGB">
            <feFlood flood-opacity="0" result="BackgroundImageFix" />
            <feBlend mode="normal" in="SourceGraphic" in2="BackgroundImageFix" result="shape" />
            <feGaussianBlur stdDeviation="33.9082" result="effect1_foregroundBlur_1013_9197" />
        </filter>
        <filter id="filter11_f_1013_9197" x="207.273" y="959.57" width="613.414" height="787.578"
            filterUnits="userSpaceOnUse" color-interpolation-filters="sRGB">
            <feFlood flood-opacity="0" result="BackgroundImageFix" />
            <feBlend mode="normal" in="SourceGraphic" in2="BackgroundImageFix" result="shape" />
            <feGaussianBlur stdDeviation="33.9082" result="effect1_foregroundBlur_1013_9197" />
        </filter>
        <filter id="filter12_f_1013_9197" x="207.973" y="954.29" width="658.371" height="781.78"
            filterUnits="userSpaceOnUse" color-interpolation-filters="sRGB">
            <feFlood flood-opacity="0" result="BackgroundImageFix" />
            <feBlend mode="normal" in="SourceGraphic" in2="BackgroundImageFix" result="shape" />
            <feGaussianBlur stdDeviation="33.9082" result="effect1_foregroundBlur_1013_9197" />
        </filter>
        <filter id="filter13_f_1013_9197" x="-208.711" y="1757.57" width="613.414" height="787.578"
            filterUnits="userSpaceOnUse" color-interpolation-filters="sRGB">
            <feFlood flood-opacity="0" result="BackgroundImageFix" />
            <feBlend mode="normal" in="SourceGraphic" in2="BackgroundImageFix" result="shape" />
            <feGaussianBlur stdDeviation="33.9082" result="effect1_foregroundBlur_1013_9197" />
        </filter>
        <filter id="filter14_f_1013_9197" x="-208.012" y="1752.29" width="658.371" height="781.78"
            filterUnits="userSpaceOnUse" color-interpolation-filters="sRGB">
            <feFlood flood-opacity="0" result="BackgroundImageFix" />
            <feBlend mode="normal" in="SourceGraphic" in2="BackgroundImageFix" result="shape" />
            <feGaussianBlur stdDeviation="33.9082" result="effect1_foregroundBlur_1013_9197" />
        </filter>
        <filter id="filter15_f_1013_9197" x="981.273" y="2910.57" width="613.414" height="787.578"
            filterUnits="userSpaceOnUse" color-interpolation-filters="sRGB">
            <feFlood flood-opacity="0" result="BackgroundImageFix" />
            <feBlend mode="normal" in="SourceGraphic" in2="BackgroundImageFix" result="shape" />
            <feGaussianBlur stdDeviation="33.9082" result="effect1_foregroundBlur_1013_9197" />
        </filter>
        <filter id="filter16_f_1013_9197" x="981.973" y="2905.29" width="658.371" height="781.78"
            filterUnits="userSpaceOnUse" color-interpolation-filters="sRGB">
            <feFlood flood-opacity="0" result="BackgroundImageFix" />
            <feBlend mode="normal" in="SourceGraphic" in2="BackgroundImageFix" result="shape" />
            <feGaussianBlur stdDeviation="33.9082" result="effect1_foregroundBlur_1013_9197" />
        </filter>
        <filter id="filter17_f_1013_9197" x="-12.0859" y="-82.6223" width="513.769" height="735.782"
            filterUnits="userSpaceOnUse" color-interpolation-filters="sRGB">
            <feFlood flood-opacity="0" result="BackgroundImageFix" />
            <feBlend mode="normal" in="SourceGraphic" in2="BackgroundImageFix" result="shape" />
            <feGaussianBlur stdDeviation="33.9082" result="effect1_foregroundBlur_1013_9197" />
        </filter>
        <filter id="filter18_f_1013_9197" x="-67.1328" y="-159.117" width="526.558" height="858.644"
            filterUnits="userSpaceOnUse" color-interpolation-filters="sRGB">
            <feFlood flood-opacity="0" result="BackgroundImageFix" />
            <feBlend mode="normal" in="SourceGraphic" in2="BackgroundImageFix" result="shape" />
            <feGaussianBlur stdDeviation="33.9082" result="effect1_foregroundBlur_1013_9197" />
        </filter>
        <filter id="filter19_b_1013_9197" x="-183.328" y="-183.328" width="1806.66" height="4688.66"
            filterUnits="userSpaceOnUse" color-interpolation-filters="sRGB">
            <feFlood flood-opacity="0" result="BackgroundImageFix" />
            <feGaussianBlur in="BackgroundImageFix" stdDeviation="91.6642" />
            <feComposite in2="SourceAlpha" operator="in" result="effect1_backgroundBlur_1013_9197" />
            <feBlend mode="normal" in="SourceGraphic" in2="effect1_backgroundBlur_1013_9197"
                result="shape" />
        </filter>
        <clipPath id="clip0_1013_9197">
            <path
                d="M0 0H1440V4191C1440 4208.67 1425.67 4223 1408 4223H32C14.3269 4223 0 4208.67 0 4191V0Z"
                fill="white" />
        </clipPath>
    </defs>
</svg>