<svg width="117" height="24" viewBox="0 0 117 24" fill="none" xmlns="http://www.w3.org/2000/svg">
<rect width="16" height="16" rx="4" fill="#0047FF" fill-opacity="0.1"/>
<rect x="8" y="8" width="16" height="16" rx="4" fill="#0047FF"/>
<path d="M33.778 16H32.084L36.228 6.2H37.978L42.108 16H40.428L39.56 13.886H34.646L33.778 16ZM36.914 8.3L35.192 12.486H39L37.278 8.3C37.2033 8.09467 37.1427 7.91267 37.096 7.754C37.0493 7.91267 36.9887 8.09467 36.914 8.3ZM44.0755 6.2H45.6715V14.516H50.8235V16H44.0755V6.2ZM50.2894 6.2H58.3674V7.67H55.1334V16H53.5374V7.67H50.2894V6.2ZM60.8339 15.23C60.8339 15.5287 60.7452 15.7573 60.5679 15.916C60.3905 16.0747 60.1665 16.154 59.8959 16.154C59.6252 16.154 59.3965 16.0747 59.2099 15.916C59.0325 15.7573 58.9439 15.5287 58.9439 15.23C58.9439 14.9407 59.0325 14.7213 59.2099 14.572C59.3965 14.4133 59.6252 14.334 59.8959 14.334C60.1665 14.334 60.3905 14.4133 60.5679 14.572C60.7452 14.7213 60.8339 14.9407 60.8339 15.23ZM63.2654 6.2H70.0274V7.67H64.8614V10.54H69.6214V12.024H64.8614V16H63.2654V6.2ZM73.6203 16H72.1223V9.28H73.6203V16ZM73.7883 7.096C73.7883 7.38533 73.6996 7.60933 73.5223 7.768C73.3543 7.91733 73.1396 7.992 72.8783 7.992C72.6169 7.992 72.3976 7.91733 72.2203 7.768C72.0429 7.60933 71.9543 7.38533 71.9543 7.096C71.9543 6.816 72.0429 6.60133 72.2203 6.452C72.3976 6.29333 72.6169 6.214 72.8783 6.214C73.1396 6.214 73.3543 6.29333 73.5223 6.452C73.6996 6.60133 73.7883 6.816 73.7883 7.096ZM77.5559 10.204C78.1719 9.46667 78.9512 9.098 79.8939 9.098C80.7339 9.098 81.4059 9.35467 81.9099 9.868C82.4139 10.372 82.6659 11.03 82.6659 11.842V16H81.1679V12.038C81.1679 11.5153 81.0232 11.1187 80.7339 10.848C80.4446 10.568 80.0666 10.428 79.5999 10.428C78.8626 10.428 78.2372 10.8013 77.7239 11.548V16H76.2259V9.28H77.5559V10.204ZM90.8824 14.446C90.8824 14.7727 91.0457 14.936 91.3724 14.936C91.4844 14.936 91.6337 14.908 91.8204 14.852V15.93C91.5404 16.042 91.223 16.098 90.8684 16.098C90.1964 16.098 89.7484 15.8367 89.5244 15.314C88.8057 15.8927 87.961 16.182 86.9904 16.182C86.337 16.182 85.7817 16.0047 85.3244 15.65C84.867 15.286 84.6384 14.7773 84.6384 14.124C84.6384 13.34 84.9324 12.7707 85.5204 12.416C86.1084 12.052 86.813 11.87 87.6344 11.87C88.1757 11.87 88.759 11.9353 89.3844 12.066V11.828C89.3844 11.3987 89.2304 11.0533 88.9224 10.792C88.6144 10.5307 88.1804 10.4 87.6204 10.4C86.7897 10.4 85.9824 10.5727 85.1984 10.918V9.546C86.0757 9.24733 86.9344 9.098 87.7744 9.098C88.7544 9.098 89.515 9.34067 90.0564 9.826C90.607 10.3113 90.8824 11.0487 90.8824 12.038V14.446ZM87.9284 12.92C87.4337 12.92 87.0184 13.0087 86.6824 13.186C86.3464 13.3633 86.1784 13.6433 86.1784 14.026C86.1784 14.3433 86.2997 14.5907 86.5424 14.768C86.785 14.936 87.0837 15.02 87.4384 15.02C88.2037 15.02 88.8524 14.754 89.3844 14.222V13.088C88.843 12.976 88.3577 12.92 87.9284 12.92ZM94.8836 10.204C95.4996 9.46667 96.279 9.098 97.2216 9.098C98.0616 9.098 98.7336 9.35467 99.2376 9.868C99.7416 10.372 99.9936 11.03 99.9936 11.842V16H98.4956V12.038C98.4956 11.5153 98.351 11.1187 98.0616 10.848C97.7723 10.568 97.3943 10.428 96.9276 10.428C96.1903 10.428 95.565 10.8013 95.0516 11.548V16H93.5536V9.28H94.8836V10.204ZM102.064 12.696C102.064 11.5293 102.433 10.638 103.17 10.022C103.907 9.406 104.775 9.098 105.774 9.098C106.577 9.098 107.267 9.27067 107.846 9.616V10.988C107.323 10.6147 106.703 10.428 105.984 10.428C105.321 10.428 104.757 10.6147 104.29 10.988C103.823 11.352 103.59 11.9027 103.59 12.64C103.59 13.3587 103.819 13.9093 104.276 14.292C104.743 14.6653 105.303 14.852 105.956 14.852C106.665 14.852 107.319 14.6793 107.916 14.334V15.72C107.272 16.028 106.53 16.182 105.69 16.182C104.71 16.182 103.861 15.8833 103.142 15.286C102.423 14.6793 102.064 13.816 102.064 12.696ZM109.586 12.64C109.586 12.0613 109.689 11.5387 109.894 11.072C110.1 10.596 110.37 10.2227 110.706 9.952C111.042 9.672 111.406 9.462 111.798 9.322C112.19 9.17267 112.587 9.098 112.988 9.098C113.502 9.098 113.964 9.17733 114.374 9.336C114.794 9.49467 115.13 9.70933 115.382 9.98C115.634 10.2507 115.84 10.5633 115.998 10.918C116.157 11.2727 116.241 11.646 116.25 12.038C116.26 12.4207 116.227 12.808 116.152 13.2H111.098C111.173 13.7693 111.453 14.1987 111.938 14.488C112.424 14.768 113.002 14.908 113.674 14.908C114.44 14.908 115.149 14.7493 115.802 14.432V15.72C115.158 16.028 114.356 16.182 113.394 16.182C112.302 16.182 111.392 15.874 110.664 15.258C109.946 14.642 109.586 13.7693 109.586 12.64ZM114.808 12.08C114.864 11.6973 114.748 11.3147 114.458 10.932C114.178 10.54 113.712 10.344 113.058 10.344C112.526 10.344 112.069 10.498 111.686 10.806C111.313 11.114 111.112 11.5387 111.084 12.08H114.808Z" fill="#12033A"/>
</svg>
